<svg width="64" height="36" viewBox="0 0 64 36" fill="none" xmlns="http://www.w3.org/2000/svg">
<path d="M63.9909 22.1872V22.1775C63.9935 22.1598 63.9935 22.1419 63.9909 22.1243V22.0614C63.9909 21.9748 63.9909 21.8934 63.9864 21.8112V21.5658C63.9814 21.3974 63.9764 21.2338 63.9665 21.0702C63.9566 20.8727 63.9421 20.6757 63.9218 20.4826V20.4778C63.9069 20.2566 63.8775 20.0305 63.8531 19.804C63.4604 16.8807 62.5998 14.0355 61.3025 11.3717C61.2334 11.2468 61.1742 11.1166 61.1051 10.9913C60.7316 11.3819 60.3088 11.7249 59.8468 12.012C59.5617 12.1905 59.2634 12.3479 58.9542 12.483C58.9393 12.4927 58.9195 12.4976 58.9 12.5072C58.8173 12.5407 58.7275 12.5793 58.6335 12.6136C58.5003 12.6611 58.3575 12.7143 58.2044 12.7575C57.7606 12.8857 57.3042 12.968 56.8426 13.0029C56.6656 13.0196 56.4879 13.0276 56.3101 13.027C55.8353 13.0265 55.3621 12.9748 54.899 12.8727C54.7807 12.8485 54.6623 12.8054 54.539 12.7764C54.3023 12.7043 54.0425 12.6176 53.735 12.4971C53.3824 12.3592 53.045 12.1867 52.7283 11.9822L52.7233 11.9769C52.7002 11.9654 52.6788 11.9509 52.6596 11.9338C52.5758 11.8787 52.4952 11.8192 52.4179 11.7557C52.2054 11.589 52.0027 11.4107 51.8109 11.2218C51.5154 10.9282 51.2419 10.6144 50.9924 10.2829L50.4843 9.62846L48.225 6.72151L46.2909 4.22838L46.2082 4.12243C45.2439 2.90459 44.0439 1.88258 42.676 1.11429C42.6346 1.09535 42.6019 1.07603 42.5626 1.05668C42.4799 1.01316 42.3897 0.970025 42.3011 0.931743C42.0992 0.835033 41.8919 0.748403 41.6804 0.667005C41.4239 0.565862 41.1628 0.484471 40.8942 0.402266C39.0778 -0.0778746 37.1699 -0.128987 35.3291 0.253173C34.2464 0.51271 33.2136 0.940195 32.2704 1.51926C32.1814 1.57205 32.0879 1.62524 31.9989 1.68287C31.91 1.62524 31.8164 1.57205 31.7275 1.51926C30.7842 0.940239 29.7514 0.512757 28.6687 0.253173C26.8279 -0.128987 24.92 -0.0778746 23.1036 0.402266C22.8371 0.482859 22.5756 0.565862 22.3174 0.667005C22.1051 0.747597 21.8978 0.835436 21.6967 0.931743C21.6077 0.970025 21.5188 1.01236 21.4348 1.05668C21.3955 1.07603 21.3611 1.09696 21.3214 1.11429C19.9533 1.88269 18.7531 2.90467 17.7884 4.12243L17.7057 4.22838L15.772 6.72151L13.5123 9.62846L13.0041 10.2829C12.7545 10.6146 12.4807 10.9284 12.1848 11.2218C11.9934 11.4109 11.791 11.5892 11.5786 11.7557C11.5012 11.8192 11.4204 11.8787 11.3365 11.9338C11.3174 11.951 11.296 11.9655 11.2728 11.9769L11.2679 11.9822C10.9512 12.1867 10.6138 12.3593 10.2611 12.4971C9.95572 12.618 9.69424 12.7043 9.45755 12.7764C9.33341 12.805 9.21544 12.8485 9.0971 12.8727C8.63406 12.9748 8.16086 13.0265 7.6861 13.027C7.50828 13.0276 7.33049 13.0196 7.1535 13.0029C6.69197 12.9679 6.23556 12.8857 5.79176 12.7575C5.63907 12.7139 5.49585 12.6611 5.36261 12.6136C5.26868 12.5797 5.17974 12.5411 5.09616 12.5072C5.07671 12.4976 5.05685 12.4927 5.04196 12.483C4.73276 12.348 4.43441 12.1905 4.14941 12.012C3.68727 11.725 3.26442 11.382 2.89106 10.9913C2.82196 11.1166 2.76277 11.2468 2.69326 11.3717C1.39631 14.0356 0.535828 16.8808 0.143066 19.804C0.118238 20.0305 0.088862 20.2566 0.0739654 20.4778V20.4826C0.0541034 20.6753 0.0395976 20.8727 0.0296665 21.0702C0.0197355 21.2338 0.0147712 21.3978 0.0102195 21.5658V21.8112C0.00525395 21.8918 0.00526931 21.9748 0.00526931 22.0614V22.1243C0.00271632 22.1419 0.00271632 22.1598 0.00526931 22.1775V22.1872C0.000985647 22.2239 -0.000708662 22.261 0.000268632 22.298C0.000268632 22.4132 0.000303788 22.5289 0.00526931 22.6441V22.6586C0.00526931 22.8847 0.0151991 23.1063 0.0247164 23.3324C0.148299 26.0227 1.09503 28.6155 2.74331 30.7779C2.7618 30.8046 2.78171 30.8305 2.80292 30.8552C2.86664 30.9415 2.94071 31.0233 3.00982 31.1103C3.07892 31.1974 3.16289 31.2884 3.23737 31.3751C4.12858 32.3764 5.15778 33.2528 6.29571 33.9794C6.31061 33.9887 6.33006 34.0036 6.34496 34.0129C6.34993 34.0173 6.3549 34.0173 6.35986 34.0221C7.01239 34.4193 7.69894 34.7608 8.41186 35.0428C10.2999 35.7179 12.3014 36.0412 14.3121 35.9958C14.9932 35.9914 15.7083 35.9527 16.4386 35.8806C16.4982 35.8758 16.552 35.8709 16.6112 35.8612L16.6526 35.8564C22.5399 35.2219 27.992 32.5323 32.0001 28.2852C36.0084 32.5323 41.4607 35.2219 47.3482 35.8564L47.3895 35.8612C47.4487 35.8709 47.5029 35.8758 47.5621 35.8806C48.2924 35.9523 49.0075 35.9914 49.6882 35.9958C51.6989 36.0412 53.7004 35.7179 55.5884 35.0428C56.3016 34.7608 56.9885 34.4194 57.6413 34.0221C57.6458 34.0177 57.6512 34.0177 57.6557 34.0129C57.6706 34.0032 57.6905 33.9887 57.705 33.9794C58.843 33.2528 59.8723 32.3764 60.7638 31.3751C60.8378 31.2884 60.9168 31.2022 60.9909 31.1103C61.065 31.0185 61.1341 30.9419 61.1978 30.8552C61.2177 30.8311 61.2392 30.8069 61.2574 30.7779C62.9055 28.6154 63.8521 26.0226 63.9756 23.3324C63.9855 23.1063 63.995 22.8847 63.995 22.6586V22.6441C64 22.5289 64 22.4132 64 22.298C63.9997 22.2609 63.9966 22.2238 63.9909 22.1872ZM35.1359 4.79819C35.1582 4.78851 35.1796 4.77702 35.2 4.76391C35.9879 4.41195 36.8445 4.22984 37.7113 4.23C37.9735 4.22821 38.2356 4.24437 38.4955 4.27836L38.5153 4.28805C39.0392 4.35569 39.5517 4.48993 40.0397 4.68737C40.5283 4.8848 40.9865 5.14718 41.4011 5.46707L41.411 5.47716C41.8243 5.78862 42.1927 6.15281 42.5063 6.55992L44.2525 8.76897L45.609 10.492L45.6239 10.5065L45.6338 10.521L47.8244 13.2978L47.8294 13.293C47.8836 13.3603 47.9279 13.4227 47.9825 13.4904L48.1604 13.7161C48.3825 13.9901 48.6197 14.2521 48.8709 14.5011L48.9537 14.5817L48.9884 14.6151C49.3461 14.9724 49.7285 15.3053 50.133 15.6116C50.2861 15.7225 50.4392 15.8333 50.5964 15.934C50.6705 15.9868 50.7495 16.0348 50.8236 16.0831C50.9519 16.1637 51.0752 16.2374 51.1985 16.3095C51.3023 16.3672 51.4112 16.4252 51.5142 16.4776C51.5734 16.5115 51.6383 16.54 51.6967 16.5739C52.0037 16.7227 52.3183 16.8562 52.6393 16.9736C52.787 17.0264 52.9352 17.0748 53.0784 17.1179C53.1818 17.1518 53.2906 17.1852 53.3941 17.2094C53.483 17.2335 53.572 17.2577 53.6606 17.2771L53.7197 17.2912L53.9266 17.3343C54.0652 17.3633 54.203 17.3871 54.3363 17.4112C54.5386 17.4403 54.7306 17.4645 54.9185 17.4834C55.0467 17.4979 55.1701 17.5023 55.288 17.5124C55.4709 17.5221 55.6435 17.5265 55.8111 17.5265C56.5392 17.537 57.2651 17.4464 57.9669 17.2573L57.962 17.267C57.8043 17.5559 54.5183 23.3114 47.0539 20.2268C46.4175 19.9378 43.2752 18.3062 40.211 13.2527L39.7914 12.5503L37.7146 9.12801L36.945 7.86713L36.683 7.43392C35.6225 5.69151 35.0999 4.82515 35.0999 4.82515C35.1123 4.81682 35.1241 4.80784 35.1355 4.79819H35.1359ZM6.0433 17.2638C6.05351 17.2661 6.06349 17.2694 6.07311 17.2735C6.55683 17.408 11.0461 18.5484 15.0077 14.6163L15.0425 14.5829L15.1252 14.5023C15.3764 14.2532 15.6135 13.9912 15.8357 13.7173L16.0132 13.4917C16.0679 13.424 16.1121 13.3615 16.1663 13.2942L16.1709 13.299L18.3615 10.5222L18.3715 10.5077L18.3859 10.4932L19.7428 8.77015L21.489 6.56115C21.8025 6.15397 22.1709 5.78977 22.5843 5.47839L22.5942 5.4683C23.009 5.1484 23.4673 4.88598 23.956 4.68855C24.444 4.49108 24.9565 4.35684 25.4804 4.28923L25.4995 4.27954C25.76 4.24551 26.0228 4.22935 26.2857 4.23118C27.1525 4.23096 28.0091 4.41312 28.797 4.76514C28.8172 4.77822 28.8386 4.78966 28.8607 4.79937C28.8607 4.79937 28.876 4.81349 28.8955 4.828L28.8905 4.83764C28.8259 4.93879 28.3083 5.80478 27.3115 7.43677L27.0499 7.86993L26.2803 9.13081L24.2039 12.5532L23.7843 13.2555C22.6324 15.2234 21.1708 17.0033 19.4527 18.5303C18.7005 19.2074 17.8553 19.7792 16.9414 20.2296C9.28622 23.3916 6.02886 17.2597 6.02886 17.2597L6.0433 17.2638ZM48.3371 31.5645C48.3123 31.5645 48.2878 31.5596 48.2634 31.5596C44.9868 31.3186 41.8185 30.3105 39.0278 28.6212C36.2371 26.9319 33.9066 24.6113 32.2344 21.8567L32.2294 21.8519C32.1504 21.7366 32.0713 21.6165 31.9977 21.4956C31.9236 21.6165 31.845 21.7374 31.7655 21.8519L31.761 21.8567C30.0888 24.6113 27.7584 26.9318 24.9677 28.6211C22.1771 30.3104 19.0088 31.3185 15.7323 31.5596C15.7075 31.5596 15.6826 31.5645 15.6586 31.5645C3.9814 32.4546 4.37576 21.8612 4.37576 21.8612L4.3803 21.8708C4.39023 21.8853 4.41009 21.914 4.4345 21.9514C4.73078 22.3895 6.16123 24.2519 9.37764 25.1283L9.71819 25.2146C9.80716 25.2339 9.89614 25.2581 9.98469 25.2726C10.4239 25.3717 10.8686 25.4456 11.3167 25.4939C12.2817 25.5954 13.2541 25.6131 14.2223 25.547L14.5285 25.518L14.711 25.5035C15.7568 25.4051 16.7849 25.1748 17.7698 24.8185C17.8732 24.7802 17.9767 24.7411 18.0806 24.7033C19.5973 24.1021 21.0037 23.2648 22.2446 22.2242C22.9944 21.5795 25.3625 19.341 28.0021 14.798L28.0116 14.7787C28.13 14.5716 28.2437 14.3757 28.3571 14.1771L28.5988 13.7632L30.148 11.092L31.9981 7.91509L33.8482 11.092L35.3974 13.7632L35.6391 14.1771C35.7528 14.3745 35.8662 14.5716 35.9846 14.7787L35.9945 14.798C38.6341 19.3414 41.0014 21.5795 41.7516 22.2242C42.9926 23.2647 44.3989 24.1019 45.9156 24.7033L46.2263 24.8185C47.2112 25.1748 48.2394 25.4051 49.2851 25.5035L49.468 25.518L49.7738 25.547C50.7422 25.6131 51.7147 25.5954 52.6799 25.4939C53.1279 25.4456 53.5727 25.3717 54.0119 25.2726C54.1004 25.2581 54.1894 25.2323 54.2779 25.2146L54.6185 25.1283C57.8353 24.2523 59.2658 22.3882 59.5617 21.9514C59.5865 21.9111 59.6059 21.8841 59.6159 21.8708L59.6208 21.8612C59.6208 21.8612 60.0144 32.4534 48.3371 31.5645Z" fill="rgb(81.960785%,24.313726%,5.882353%)"/>
</svg>
