<?xml version="1.0" encoding="UTF-8"?>
<svg xmlns="http://www.w3.org/2000/svg" xmlns:xlink="http://www.w3.org/1999/xlink" viewBox="0 0 24 24" width="24px" height="24px">
<g id="surface61984662">
<path style=" stroke:none;fill-rule:nonzero;fill:rgb(81.960785%,24.313726%,5.882353%);fill-opacity:1;" d="M 19.625 5.089844 C 18.222656 4.445312 16.71875 3.972656 15.144531 3.699219 C 15.117188 3.695312 15.089844 3.707031 15.074219 3.734375 C 14.878906 4.078125 14.667969 4.527344 14.515625 4.878906 C 12.824219 4.625 11.144531 4.625 9.488281 4.878906 C 9.335938 4.519531 9.113281 4.078125 8.921875 3.734375 C 8.90625 3.707031 8.878906 3.695312 8.847656 3.699219 C 7.277344 3.96875 5.773438 4.445312 4.371094 5.089844 C 4.359375 5.09375 4.347656 5.101562 4.339844 5.113281 C 1.488281 9.375 0.707031 13.53125 1.089844 17.636719 C 1.09375 17.65625 1.105469 17.675781 1.121094 17.6875 C 3 19.070312 4.824219 19.910156 6.613281 20.464844 C 6.640625 20.472656 6.671875 20.464844 6.691406 20.4375 C 7.113281 19.859375 7.492188 19.253906 7.8125 18.609375 C 7.832031 18.574219 7.816406 18.527344 7.777344 18.515625 C 7.175781 18.285156 6.609375 18.011719 6.058594 17.695312 C 6.015625 17.671875 6.011719 17.609375 6.054688 17.578125 C 6.167969 17.492188 6.285156 17.402344 6.394531 17.3125 C 6.414062 17.296875 6.441406 17.292969 6.464844 17.300781 C 10.066406 18.945312 13.964844 18.945312 17.523438 17.300781 C 17.546875 17.289062 17.574219 17.292969 17.59375 17.3125 C 17.703125 17.402344 17.820312 17.492188 17.933594 17.578125 C 17.976562 17.609375 17.972656 17.671875 17.929688 17.695312 C 17.382812 18.015625 16.8125 18.285156 16.210938 18.511719 C 16.171875 18.527344 16.15625 18.574219 16.175781 18.609375 C 16.503906 19.25 16.882812 19.859375 17.296875 20.4375 C 17.316406 20.460938 17.347656 20.472656 17.375 20.464844 C 19.171875 19.90625 20.996094 19.070312 22.875 17.6875 C 22.894531 17.675781 22.902344 17.65625 22.90625 17.636719 C 23.363281 12.890625 22.136719 8.769531 19.652344 5.113281 C 19.648438 5.101562 19.636719 5.09375 19.625 5.089844 Z M 8.351562 15.136719 C 7.265625 15.136719 6.375 14.140625 6.375 12.917969 C 6.375 11.695312 7.25 10.703125 8.351562 10.703125 C 9.460938 10.703125 10.347656 11.707031 10.328125 12.917969 C 10.328125 14.140625 9.453125 15.136719 8.351562 15.136719 Z M 15.660156 15.136719 C 14.578125 15.136719 13.683594 14.140625 13.683594 12.917969 C 13.683594 11.695312 14.5625 10.703125 15.660156 10.703125 C 16.773438 10.703125 17.65625 11.707031 17.640625 12.917969 C 17.640625 14.140625 16.773438 15.136719 15.660156 15.136719 Z M 15.660156 15.136719 "/>
</g>
</svg>
