<svg width="32" height="32" viewBox="0 0 32 32" fill="none" xmlns="http://www.w3.org/2000/svg">
<g filter="url(#filter0_d_37_2347)">
<path d="M14.6665 24H17.3332V21.3333H14.6665V24ZM15.9998 2.66663C8.63984 2.66663 2.6665 8.63996 2.6665 16C2.6665 23.36 8.63984 29.3333 15.9998 29.3333C23.3598 29.3333 29.3332 23.36 29.3332 16C29.3332 8.63996 23.3598 2.66663 15.9998 2.66663ZM15.9998 26.6666C10.1198 26.6666 5.33317 21.88 5.33317 16C5.33317 10.12 10.1198 5.33329 15.9998 5.33329C21.8798 5.33329 26.6665 10.12 26.6665 16C26.6665 21.88 21.8798 26.6666 15.9998 26.6666ZM15.9998 7.99996C13.0532 7.99996 10.6665 10.3866 10.6665 13.3333H13.3332C13.3332 11.8666 14.5332 10.6666 15.9998 10.6666C17.4665 10.6666 18.6665 11.8666 18.6665 13.3333C18.6665 16 14.6665 15.6666 14.6665 20H17.3332C17.3332 17 21.3332 16.6666 21.3332 13.3333C21.3332 10.3866 18.9465 7.99996 15.9998 7.99996Z" fill="white"/>
</g>
<defs>
<filter id="filter0_d_37_2347" x="-1.3335" y="-1.33337" width="34.6665" height="34.6666" filterUnits="userSpaceOnUse" color-interpolation-filters="sRGB">
<feFlood flood-opacity="0" result="BackgroundImageFix"/>
<feColorMatrix in="SourceAlpha" type="matrix" values="0 0 0 0 0 0 0 0 0 0 0 0 0 0 0 0 0 0 127 0" result="hardAlpha"/>
<feOffset/>
<feGaussianBlur stdDeviation="2"/>
<feComposite in2="hardAlpha" operator="out"/>
<feColorMatrix type="matrix" values="0 0 0 0 1 0 0 0 0 1 0 0 0 0 1 0 0 0 0.5 0"/>
<feBlend mode="normal" in2="BackgroundImageFix" result="effect1_dropShadow_37_2347"/>
<feBlend mode="normal" in="SourceGraphic" in2="effect1_dropShadow_37_2347" result="shape"/>
</filter>
</defs>
</svg>
