<?xml version="1.0" encoding="UTF-8"?>
<svg xmlns="http://www.w3.org/2000/svg" xmlns:xlink="http://www.w3.org/1999/xlink" viewBox="0 0 26 26" width="26px" height="26px">
<g id="surface56514630">
<path style=" stroke:none;fill-rule:nonzero;fill:rgb(57.254905%,54.509807%,39.215687%);fill-opacity:1;" d="M 13 2.4375 C 7.175781 2.4375 2.4375 7.175781 2.4375 13 C 2.4375 18.824219 7.175781 23.5625 13 23.5625 C 18.824219 23.5625 23.5625 18.824219 23.5625 13 C 23.5625 7.175781 18.824219 2.4375 13 2.4375 Z M 13 4.0625 C 17.945312 4.0625 21.9375 8.054688 21.9375 13 C 21.9375 17.945312 17.945312 21.9375 13 21.9375 C 8.054688 21.9375 4.0625 17.945312 4.0625 13 C 4.0625 8.054688 8.054688 4.0625 13 4.0625 Z M 12.1875 8.125 L 12.1875 9.75 L 13.8125 9.75 L 13.8125 8.125 Z M 12.1875 11.375 L 12.1875 17.875 L 13.8125 17.875 L 13.8125 11.375 Z M 12.1875 11.375 "/>
</g>
</svg>
