<svg width="69" height="70" viewBox="0 0 69 70" fill="none" xmlns="http://www.w3.org/2000/svg">
<g clip-path="url(#clip0_21_84)">
<path d="M27.9884 34.6586L30.8025 34.1365L29.5518 35.9093L26.841 38.0981L30.0738 36.7441L32.3658 34.2427V32.0539L26.841 30.3844L23.8175 27.7797L24.965 31.7412L23.4016 31.8445L25.1744 33.8238L27.9884 34.6586Z" fill="white"/>
<path d="M41.7458 38.0981L39.0351 35.9093L37.7872 34.1365L40.6013 34.6586L43.4153 33.8238L45.1852 31.8445L43.6219 31.7412L44.7693 27.7797L41.7458 30.3844L36.2239 32.0539V34.2427L38.5158 36.7441L41.7458 38.0981Z" fill="white"/>
<path d="M33.0084 39.871L34.4685 39.4005L35.6159 40.0259L37.6469 38.9329L35.5098 39.194L34.0497 38.7235L33.0084 39.4005L31.4451 39.2456L33.0084 39.871Z" fill="white"/>
<path d="M33.7916 44.2828L29.4113 43.5542C29.4113 43.5542 27.2943 42.3379 26.8066 41.7469C26.8066 41.7469 27.8823 43.4853 27.9885 43.5542C28.0946 43.623 29.5518 45.3442 29.5518 45.3442C29.5518 47.2891 30.6993 48.1411 30.6993 48.1411L30.8714 45.9696C31.0119 45.9696 33.826 46.4371 33.826 46.4371L36.7949 46.1761L38.8803 45.3958C39.0209 45.3958 40.1138 47.3752 40.1138 47.3752C40.6703 46.265 40.4179 44.6901 40.4179 44.6901L43.0684 41.8502L39.5229 43.6919L33.7916 44.2828Z" fill="white"/>
<path d="M61.8946 61.6408V61.6179L69 58.9099C64.9095 57.7338 59.1982 52.0769 57.1414 49.934C59.3732 47.7338 60.7902 44.3689 60.7902 44.3689C56.6624 44.9025 53.6705 43.6087 52.5833 43.2215C50.9855 41.6867 49.078 40.5135 46.9868 39.7791L47.0814 39.4148C48.7739 38.7464 50.2541 36.6122 51.4761 33.0694C51.8289 32.0482 52.1215 31.0184 52.3682 30.0717C53.8197 25.7344 53.6389 22.5158 53.6389 22.5158C53.6389 22.5158 49.5369 28.3534 49.1611 28.6517C49.775 26.1388 50.8593 21.0155 50.8593 16.3339C50.8593 15.9495 50.8593 15.5651 50.8364 15.1865C50.8106 14.5611 50.6585 13.9443 50.3917 13.3792L50.4061 13.3534L48.8341 8.60585L48.9919 11.004C48.9919 11.004 46.0717 6.88468 45.9082 6.77567C45.7447 6.66667 46.0631 9.01606 46.0631 9.01606L43.206 5.73723L42.5291 7.14286L42.268 5.31842L39.2446 6.62077L40.131 3.28744L37.6812 5.00861L37.5894 3.12679L34.5057 6.59782L34.6578 3.86403L31.4794 0L31.5827 4.01606L26.1898 8.26735H26.1669L26.425 6.40562L20.8486 10.7372L20.2921 9.11933C18.7546 10.3155 18.2841 13.6116 18.1636 14.7676C18.1636 14.8709 18.1407 14.9771 18.1349 15.0803C18.1292 15.1836 18.1349 15.175 18.1349 15.175C17.9341 20.132 19.1332 25.8606 19.8102 28.6374C19.4172 28.3133 15.3381 22.5043 15.3381 22.5043C15.3381 22.5043 15.1545 25.7516 16.629 30.1205C17.5469 33.6632 19.1561 38.3247 21.8985 39.4033C21.9358 39.5554 21.9759 39.6902 22.0132 39.8537C20.097 40.5651 18.3415 41.6523 16.8498 43.0493H16.8154C16.345 43.0493 13.0605 44.9426 8.20978 44.3173C8.20978 44.3173 9.62684 47.6822 11.8586 49.8795C9.80469 52.0252 4.09342 57.6822 0 58.8583L7.34635 61.6581L12.0594 63.1096L7.55862 66.0327L34.3222 69.9598L34.6721 70L62.0208 66.0327L57.7553 62.9289L61.8946 61.6408V61.6408ZM20.5732 36.8703H20.5876C19.8962 35.8721 19.3369 34.7935 18.9181 33.6546C18.0604 31.354 17.3375 29.0075 16.7552 26.6236C18.0345 29.0534 19.6696 29.8508 19.9249 29.9541L20.2376 30.1004L20.5244 30.2381L20.5474 30.3242V30.2524L21.3621 30.6311L21.4051 29.3775L21.6346 22.7395C22.1222 20.3672 22.7963 17.9604 23.6999 16.4056C24.3597 15.2783 25.8026 14.8967 26.9356 15.545C27.3774 15.7975 27.8966 16.0872 28.4588 16.4056L26.9443 20.545L31.1668 18.646L30.0738 22.2547C31.2069 21.1073 34.3078 19.5123 36.2928 18.5485C36.6715 18.3764 37.076 18.1813 37.4862 17.9748L38.0599 17.7166H38.0398C39.4741 16.9822 40.98 16.1503 42.0328 15.5508C43.1659 14.9025 44.6088 15.284 45.2685 16.4114C46.1721 17.9661 46.8462 20.3729 47.3339 22.7453L47.5634 29.3832L47.6064 30.6368L48.4211 30.2582V30.3299L48.444 30.2438L48.7309 30.1061L49.0435 29.9598C49.2988 29.8566 50.7302 29.0447 52.2706 26.4028C51.6711 28.8612 50.9282 31.2851 50.0504 33.6604C49.0062 36.3368 47.8015 37.9633 46.5565 38.3993C46.4245 38.4423 46.3069 38.5198 46.2151 38.6231C46.1205 38.7263 46.0545 38.8497 46.0201 38.9845C45.5267 41.0155 44.9013 43.012 44.1527 44.9627C43.5359 46.5777 42.7672 48.1325 41.8578 49.6041C41.0087 51.0298 39.8957 52.2805 38.5791 53.2903C36.158 55.1606 32.7789 55.1606 30.3578 53.2903C29.0412 52.2805 27.9282 51.0298 27.0791 49.6041C25.5817 47.2289 24.2995 44.0849 23.2553 40.2496C23.2123 40.0975 23.1721 39.9398 23.132 39.7849C23.0602 39.5209 22.9914 39.2542 22.9254 38.9845C22.8939 38.8497 22.825 38.7235 22.7304 38.6231C22.6386 38.5198 22.521 38.4423 22.389 38.3993C21.7751 38.1784 21.1613 37.6649 20.5732 36.8703V36.8703ZM45.0104 45.8376L44.7608 52.2719C44.7493 52.49 44.646 52.6908 44.4739 52.8227L34.6004 60.654L24.7469 52.8227C24.5777 52.6879 24.4716 52.4871 24.4601 52.2719L24.2363 46.5089C24.7756 47.7854 25.4096 49.0189 26.1353 50.2008C28.4646 53.9013 31.27 55.7889 34.4799 55.8176C38.8057 55.7831 42.3426 52.4268 45.0104 45.8376ZM46.8348 60.7458C46.8032 61.1446 46.7745 61.5232 46.743 61.8703C44.7034 63.864 40.96 66.6122 34.6291 68.5686C28.2609 66.6007 24.5117 63.8353 22.4693 61.8302C22.4406 61.4945 22.4148 61.1274 22.3861 60.743C22.1566 57.7826 21.8497 53.7636 20.7625 51.5634C21.4137 51.0843 22.1767 50.7774 22.9771 50.6741C23.0057 51.3999 22.9771 53.1842 22.9771 53.1842L23.8548 53.93L25.4956 55.2295L33.3813 61.4859C33.1948 61.6523 31.3733 64.3546 31.3733 64.3546L35.1684 62.031L35.3233 61.9076L43.731 55.2381L45.3689 53.9386C45.432 53.887 45.4951 53.8325 45.5525 53.7751L46.2381 53.2014C46.2381 53.2014 46.2209 52.0539 46.2381 51.2278L46.2582 50.6913C47.0585 50.7975 47.8215 51.1044 48.4727 51.5835C47.3654 53.7665 47.0556 57.7826 46.8319 60.7458H46.8348Z" fill="white"/>
</g>
<defs>
<clipPath id="clip0_21_84">
<rect width="69" height="70" fill="white"/>
</clipPath>
</defs>
</svg>
